DataRate=2000.000000
DataType=double
version=3
OpenSimVersion=4.3-2021-08-27-4bc7ad9
endheader
time	f1_1	f1_2	f1_3	p1_1	p1_2	p1_3	m1_1	m1_2	m1_3	f2_1	f2_2	f2_3	p2_1	p2_2	p2_3	m2_1	m2_2	m2_3	f3_1	f3_2	f3_3	p3_1	p3_2	p3_3	m3_1	m3_2	m3_3	f4_1	f4_2	f4_3	p4_1	p4_2	p4_3	m4_1	m4_2	m4_3
3.33	-0	0	0	-300	2252	0	0	0	0	-1.238821029663086	-26.87565803527832	368.90771484375	-300	1351	0	-85215.953125	17951.99609375	-13442.1708984375	-6.990702694189362	34.21560256918258	398.1029663085938	-300	450.0000000000007	0	104765.7721902489	28533.78192320733	14756.6923828125	-0	0	0	305	450.0000000000007	0	0	0	0
3.3305	-0	0	0	-300	2252	0	0	0	0	-1.673441052436829	-27.19485282897949	367.8482666015625	-300	1351	0	-85456.2421875	17843.46484375	-13281.2109375	-7.061219750401112	34.05708282122713	398.0328369140625	-300	450.0000000000007	0	104545.9362474926	28654.031913598	14851.51953125	-0	0	0	305	450.0000000000007	0	0	0	0
3.331	-0	0	0	-300	2252	0	0	0	0	-2.22448468208313	-27.12727737426758	369.1128234863281	-300	1351	0	-85445.0078125	17698.1171875	-13384.115234375	-7.380389269406129	34.00385252163126	399.427734375	-300	450.0000000000007	0	104807.4284372782	28601.74286252818	14780.763671875	-0	0	0	305	450.0000000000007	0	0	0	0
3.3315	-0	0	0	-300	2252	0	0	0	0	-2.319473266601562	-27.68208885192871	367.9738464355469	-300	1351	0	-85409.75	18012.166015625	-13391.6748046875	-7.380833217138099	34.28610578699271	398.9417419433594	-300	450.0000000000007	0	104902.2878153256	28532.02802292462	14804.3857421875	-0	0	0	305	450.0000000000007	0	0	0	0
3.332	-0	0	0	-300	2252	0	0	0	0	-2.099379777908325	-26.92910194396973	367.6603393554688	-300	1351	0	-85020.8984375	17879.05078125	-13385.8154296875	-7.292130064725493	34.35713926865326	398.1733093261719	-300	450.0000000000007	0	104958.4206265112	28562.09638475326	14674.087890625	-0	0	0	305	450.0000000000007	0	0	0	0
3.3325	-0	0	0	-300	2252	0	0	0	0	-1.978484511375427	-27.10557746887207	367.9507446289062	-300	1351	0	-85347.578125	17975.134765625	-13458.064453125	-7.557724057975028	34.07494321212189	399.4273071289062	-300	450.0000000000007	0	104746.061254434	28495.23114109574	14922.740234375	-0	0	0	305	450.0000000000007	0	0	0	0
3.333	-0	0	0	-300	2252	0	0	0	0	-2.109331130981445	-27.258056640625	369.4654541015625	-300	1351	0	-85496.2265625	17770.94140625	-13449.767578125	-7.487424426387198	33.9333073204194	398.9420166015625	-300	450.0000000000007	0	104473.8268704674	28700.363941696	15017.9775390625	-0	0	0	305	450.0000000000007	0	0	0	0
3.3335	-0	0	0	-300	2252	0	0	0	0	-1.847681760787964	-27.12734985351562	368.6179809570312	-300	1351	0	-85334.0234375	17897.56640625	-13492.4765625	-7.168327405108488	34.40927092689687	400.1253356933594	-300	450.0000000000007	0	104975.0534372844	28601.6022448553	14905.39453125	-0	0	0	305	450.0000000000007	0	0	0	0
3.334	-0	0	0	-300	2252	0	0	0	0	-2.297557592391968	-27.09564208984375	368.6570129394531	-300	1351	0	-84908.15625	17723.798828125	-13527.0048828125	-7.663566182277691	34.32219662546414	399.0828857421875	-300	450.0000000000007	0	104997.0065585512	28687.00654268991	14923.2294921875	-0	0	0	305	450.0000000000007	0	0	0	0
3.3345	-0	0	0	-300	2252	0	0	0	0	-2.041974544525146	-27.09564208984375	365.5259399414062	-300	1351	0	-85100.5625	17900.982421875	-13556.18359375	-7.806550579452425	34.48041500300316	399.5676574707031	-300	450.0000000000007	0	105084.9518696864	28718.22920278412	14982.7021484375	-0	0	0	305	450.0000000000007	0	0	0	0
3.335	-0	0	0	-300	2252	0	0	0	0	-2.182643890380859	-26.80255508422852	367.1576232910156	-300	1351	0	-85310.0859375	18008.640625	-13465.02734375	-7.523190091274107	34.32219281690291	398.9421691894531	-300	450.0000000000007	0	105260.498755517	28470.45577295751	14804.904296875	-0	0	0	305	450.0000000000007	0	0	0	0
3.3355	-0	0	0	-300	2252	0	0	0	0	-2.010272026062012	-26.66585540771484	368.240966796875	-300	1351	0	-85061.2109375	17814.587890625	-13395.98828125	-7.310041978040661	34.40985838408124	399.2887268066406	-300	450.0000000000007	0	105358.2175025062	28539.33468347894	14922.7685546875	-0	0	0	305	450.0000000000007	0	0	0	0
3.336	-0	0	0	-300	2252	0	0	0	0	-2.035954236984253	-26.86976051330566	367.4958190917969	-300	1351	0	-85123.8046875	17581.255859375	-13337.68359375	-7.415937018934038	34.37494627007742	399.429443359375	-300	450.0000000000007	0	105316.9596841542	28673.2116348005	15012.0498046875	-0	0	0	305	450.0000000000007	0	0	0	0
3.3365	-0	0	0	-300	2252	0	0	0	0	-2.345104455947876	-26.47788238525391	368.1779174804688	-300	1351	0	-85069.609375	17847.12890625	-13495.25	-7.310070585965727	34.35713926786905	399.9869079589844	-300	450.0000000000007	0	105197.6706249509	28597.79170771121	14834.482421875	-0	0	0	305	450.0000000000007	0	0	0	0
3.337	-0	0	0	-300	2252	0	0	0	0	-1.895525097846985	-26.60232734680176	366.6253662109375	-300	1351	0	-85286.1484375	17691.51171875	-13555.734375	-7.699152547085203	34.49814190589103	400.1277465820312	-300	450.0000000000007	0	105389.7253105081	28642.23898173119	15000.0380859375	-0	0	0	305	450.0000000000007	0	0	0	0
3.3375	-0	0	0	-300	2252	0	0	0	0	-2.077414512634277	-26.50351905822754	367.6985778808594	-300	1351	0	-85217.9140625	17610.9453125	-13368.7001953125	-7.73574694875613	34.74525799315863	401.242431640625	-300	450.0000000000007	0	105510.1549933597	28748.58078387034	14959.291015625	-0	0	0	305	450.0000000000007	0	0	0	0
3.338	-0	0	0	-300	2252	0	0	0	0	-2.067758321762085	-26.47172927856445	367.7233581542969	-300	1351	0	-85025.796875	17648.2265625	-13350.9765625	-7.647043315658375	34.72825970602037	400.1311645507812	-300	450.0000000000007	0	105416.3893695647	28721.01437352171	14935.2734375	-0	0	0	305	450.0000000000007	0	0	0	0
3.3385	-0	0	0	-300	2252	0	0	0	0	-2.271701335906982	-26.76461219787598	366.2096252441406	-300	1351	0	-85061.859375	17913.693359375	-13500.6162109375	-7.558339682524103	34.71042600018092	401.4503173828125	-300	450.0000000000007	0	105495.022180778	28750.44992383386	15077.2333984375	-0	0	0	305	450.0000000000007	0	0	0	0
3.339	-0	0	0	-300	2252	0	0	0	0	-2.026356220245361	-26.75503730773926	366.7647705078125	-300	1351	0	-85184.2578125	17806.35546875	-13507.8427734375	-7.540418213207142	34.21712079466547	401.0377502441406	-300	450.0000000000007	0	105441.451867803	28761.31710899223	14876.36328125	-0	0	0	305	450.0000000000007	0	0	0	0
3.3395	-0	0	0	-300	2252	0	0	0	0	-1.962631225585938	-26.51950263977051	367.8241882324219	-300	1351	0	-85139.4453125	17625.17578125	-13382.328125	-7.540418216985767	34.3035656494018	400.8260498046875	-300	450.0000000000007	0	105590.7487509153	28575.7292248932	14934.763671875	-0	0	0	305	450.0000000000007	0	0	0	0
3.34	-0	0	0	-300	2252	0	0	0	0	-1.816101908683777	-26.5449275970459	368.5935974121094	-300	1351	0	-85184.4453125	17584.419921875	-13500.279296875	-7.328115537623234	34.42759291087911	401.1046142578125	-300	450.0000000000007	0	105637.8581244313	28609.68039882742	14940.970703125	-0	0	0	305	450.0000000000007	0	0	0	0
3.3405	-0	0	0	-300	2252	0	0	0	0	-1.784210205078125	-26.34128570556641	367.8497924804688	-300	1351	0	-85129.03125	17776.513671875	-13531.466796875	-7.34504613394073	34.79771009763905	401.1752319335938	-300	450.0000000000007	0	105658.3659419473	28494.92649347384	14982.400390625	-0	0	0	305	450.0000000000007	0	0	0	0
